<svg xmlns="http://www.w3.org/2000/svg" viewBox="0 0 200 200" fill="none">
  <defs>
    <linearGradient id="sg" x1="0%" y1="0%" x2="0%" y2="100%">
      <stop offset="0%" stop-color="#2E7D32"/>
      <stop offset="50%" stop-color="#1B5E20"/>
      <stop offset="100%" stop-color="#0D3B13"/>
    </linearGradient>
    <linearGradient id="gg" x1="0%" y1="0%" x2="100%" y2="100%">
      <stop offset="0%" stop-color="#F5D77A"/>
      <stop offset="30%" stop-color="#D4A843"/>
      <stop offset="60%" stop-color="#E8C96A"/>
      <stop offset="100%" stop-color="#C09533"/>
    </linearGradient>
  </defs>
  <path d="M100 10L185 42V90C185 140 152 172 100 192C48 172 15 140 15 90V42L100 10Z" fill="url(#sg)"/>
  <path d="M100 10L185 42V90C185 140 152 172 100 192C48 172 15 140 15 90V42L100 10Z" fill="none" stroke="url(#gg)" stroke-width="4"/>
  <ellipse cx="100" cy="88" rx="58" ry="58" fill="none" stroke="url(#gg)" stroke-width="2"/>
  <text x="68" y="98" text-anchor="middle" font-family="Georgia,serif" font-size="52" font-weight="900" fill="url(#gg)">S</text>
  <text x="100" y="98" text-anchor="middle" font-family="Georgia,serif" font-size="58" font-weight="900" fill="url(#gg)">M</text>
  <text x="134" y="98" text-anchor="middle" font-family="Georgia,serif" font-size="52" font-weight="900" fill="url(#gg)">K</text>
  <line x1="60" y1="110" x2="140" y2="110" stroke="url(#gg)" stroke-width="1"/>
  <text x="100" y="130" text-anchor="middle" font-family="Trebuchet MS,sans-serif" font-size="22" font-weight="900" fill="#FFFDF5" letter-spacing="10">CHITS</text>
</svg>
